<svg id="Capa_1" data-name="Capa 1" xmlns="http://www.w3.org/2000/svg" viewBox="0 0 492 492"><defs><style>.cls-1{fill:#111;}</style></defs><title>1Mesa de trabajo 3</title><path class="cls-1" d="M356.1,352.68H356c-.59.1-.89.47-.32.25.06,0,.11,0,.19,0l.28-.16.17-.07h0A.47.47,0,0,1,356.1,352.68Z"/><path class="cls-1" d="M48.21,146.47c7,22.09,14,44.14,21.46,65.95C73.38,223.32,77,234.22,81,245l5.9,16.09c1,2.68,2,5.32,3,8s2,5.3,3.11,7.92c4.22,10.52,8.61,20.89,13.34,30.88,2.35,5,4.79,9.91,7.33,14.66,1.25,2.4,2.62,4.65,3.9,7l2,3.33c.67,1.12,1.34,2.22,2,3.25l2.08,3.14,2.15,2.92c.7,1,1.45,1.82,2.16,2.73.36.43.72.91,1.07,1.31l1.08,1.17,1.06,1.17,1.05,1,1,1,1,.75a6.42,6.42,0,0,0,.58.46c.37-.46.8-1.11,1.23-1.71.5-.79,1-1.53,1.54-2.46a103.9,103.9,0,0,0,6.18-12.69c2-4.71,3.85-9.71,5.66-14.84s3.52-10.42,5.21-15.78,3.37-10.78,5-16.25c3.3-11,6.63-22.09,10.14-33.35s7.3-22.62,11.64-34.17c2.18-5.78,4.57-11.58,7.25-17.48a172,172,0,0,1,9.43-18c1-1.54,1.9-3.08,3-4.65s2.22-3.13,3.4-4.7a75.49,75.49,0,0,1,8.78-9.61,54.39,54.39,0,0,1,13.4-9.05,45.41,45.41,0,0,1,9.11-3.13,44.55,44.55,0,0,1,5-.84c1.7-.14,3.42-.28,5.13-.25s3.43.16,5.11.36,3.34.58,5,1,3.12.92,4.66,1.46,2.84,1.18,4.24,1.83a55.56,55.56,0,0,1,13,9,74.88,74.88,0,0,1,8.66,9.5l1.77,2.34,1.62,2.31c1.11,1.56,2,3.06,3,4.6a175.29,175.29,0,0,1,9.51,17.87c2.73,5.86,5.17,11.63,7.42,17.38,8.89,22.94,15.58,45.39,22.48,67.27,3.44,10.92,6.89,21.67,10.57,32,1.84,5.14,3.79,10.12,5.8,14.84.5,1.17,1,2.35,1.53,3.46l.77,1.7.79,1.62c.52,1.12,1.07,2.08,1.6,3.13l.8,1.45c.27.49.54,1,.8,1.38a41.37,41.37,0,0,0,3,4.43l.31-.25c.31-.26.62-.51.95-.75s.66-.64,1-.94l1-1c.35-.34.7-.77,1.06-1.15A83,83,0,0,0,371,336.25l1-1.57,1-1.67,2-3.33c1.28-2.33,2.62-4.6,3.88-7q3.78-7.14,7.29-14.67c4.71-10,9.05-20.39,13.24-30.92,1.07-2.62,2.09-5.27,3.1-7.93l3-8,5.85-16.11,2.9-8.09,2.81-8.13c1.91-5.42,3.65-10.9,5.52-16.35s3.63-10.94,5.45-16.41,3.5-11,5.33-16.49c3.57-11,7-22.05,10.52-33.1q5-16,10-32a246,246,0,0,0-415.85-.08Q43.17,130.48,48.21,146.47Z"/><path class="cls-1" d="M137.32,352.84a.66.66,0,0,0-.19-.09.44.44,0,0,0-.2,0h-.06l-.16,0h0l.3.15.14.08h.09a.79.79,0,0,1,.32.08.07.07,0,0,0,.06-.07s-.09-.11-.15-.12Z"/><path class="cls-1" d="M460.54,125.59q-1.4,12-3,23.95c-1.49,11.57-3.29,23.1-5.08,34.64s-3.9,23-6,34.54c-4.46,23-9.43,46-15.82,68.82q-4.67,17.19-10.76,34.3c-2.06,5.71-4.28,11.42-6.7,17.15-1.2,2.86-2.54,5.73-3.84,8.58l-2.14,4.31L406.09,354l-1.18,2.16a116.6,116.6,0,0,1-11.15,17.37c-.58.73-1.11,1.46-1.74,2.19l-1.94,2.19c-.68.73-1.25,1.45-2,2.18l-2.26,2.18-1.14,1.08c-.42.36-.87.72-1.3,1.08l-2.66,2.11c-.93.7-2,1.38-3,2l-1.57,1c-.54.32-1.17.63-1.76.93a39.86,39.86,0,0,1-17,4.69l-1.19,0a10.42,10.42,0,0,1-1.26,0c-.95,0-1.89-.1-2.83-.19a33.2,33.2,0,0,1-5.45-1,20.9,20.9,0,0,1-2.53-.78c-.81-.28-1.61-.59-2.41-.91l-.6-.24-.53-.25-1.06-.53c-.7-.35-1.4-.72-2.09-1.1a50.38,50.38,0,0,1-11.85-9.64,76,76,0,0,1-7.44-9.44c-.55-.77-1.05-1.53-1.52-2.28l-1.44-2.28c-.88-1.48-1.82-3-2.62-4.47L311.32,360l-1.17-2.2c-.79-1.47-1.5-2.91-2.23-4.37-2.88-5.79-5.36-11.51-7.72-17.17-4.71-11.33-8.77-22.5-12.71-33.54L276,270c-3.82-10.71-7.65-21.25-11.81-31.27-2.07-5-4.19-9.89-6.42-14.5a127.77,127.77,0,0,0-6.94-12.72c-.6-.89-1.18-1.86-1.77-2.66l-.87-1.24-.86-1.11c-.62-.78-1.23-1.51-1.8-2.13-.47.54-1,1.14-1.5,1.78s-1.12,1.46-1.69,2.34-1.16,1.72-1.74,2.63a120.29,120.29,0,0,0-6.82,12.7c-2.19,4.61-4.25,9.51-6.29,14.52-4.06,10-7.76,20.64-11.5,31.37L204.8,302.52c-3.82,11.09-7.8,22.3-12.4,33.68-2.31,5.7-4.76,11.44-7.61,17.27a144.65,144.65,0,0,1-10.15,18c-1,1.53-2.21,3.13-3.4,4.69s-2.56,3.19-4.14,4.84a49.52,49.52,0,0,1-12.23,9.69,35.35,35.35,0,0,1-4.41,2.07q-1.22.46-2.43.87c-.8.28-1.74.49-2.61.7s-1.79.39-2.69.55-1.87.22-2.8.29l-1.41.08-.7,0-.61,0q-1.19,0-2.37-.12a41,41,0,0,1-16.67-4.9l-.89-.46-.78-.49-1.56-1a34.17,34.17,0,0,1-3-2,58,58,0,0,1-5-4.25l-2.26-2.17c-.69-.73-1.32-1.45-2-2.17l-1.94-2.19L99,373.29l-1.69-2.18c-.55-.72-1-1.44-1.52-2.17-1-1.44-2-2.9-2.89-4.34l-2.65-4.32L87.9,356c-.82-1.44-1.54-2.87-2.25-4.3l-2.15-4.29c-1.29-2.86-2.66-5.72-3.85-8.58q-3.65-8.57-6.74-17.12c-4.12-11.41-7.71-22.81-10.85-34.26-6.46-22.85-11.5-45.79-16-68.76s-8.2-46-11.34-69.14Q33,137.45,31.58,125.36A244.86,244.86,0,0,0,0,246C0,381.86,110.14,492,246,492S492,381.86,492,246A244.73,244.73,0,0,0,460.54,125.59Z"/></svg>
