<?xml version="1.0" encoding="utf-8"?>
<!-- Generator: Adobe Illustrator 22.0.1, SVG Export Plug-In . SVG Version: 6.00 Build 0)  -->
<svg version="1.1" id="Capa_1" xmlns="http://www.w3.org/2000/svg" xmlns:xlink="http://www.w3.org/1999/xlink" x="0px" y="0px"
	 viewBox="0 0 492 492" style="enable-background:new 0 0 492 492;" xml:space="preserve">
<style type="text/css">
	.st0{fill:#FFFFFF;}
</style>
<title>1Mesa de trabajo 3</title>
<path class="st0" d="M356.1,352.7H356c-0.6,0.1-0.9,0.5-0.3,0.2c0.1,0,0.1,0,0.2,0L356.1,352.7l0.2,0l0,0
	C356.2,352.7,356.2,352.7,356.1,352.7z"/>
<path class="st0" d="M48.2,146.5c7,22.1,14,44.1,21.5,65.9C73.4,223.3,77,234.2,81,245l5.9,16.1c1,2.7,2,5.3,3,8s2,5.3,3.1,7.9
	c4.2,10.5,8.6,20.9,13.3,30.9c2.3,5,4.8,9.9,7.3,14.7c1.2,2.4,2.6,4.6,3.9,7l2,3.3c0.7,1.1,1.3,2.2,2,3.2l2.1,3.1l2.2,2.9
	c0.7,1,1.4,1.8,2.2,2.7c0.4,0.4,0.7,0.9,1.1,1.3l1.1,1.2l1.1,1.2l1.1,1l1,1l1,0.8c0.2,0.2,0.4,0.3,0.6,0.5c0.4-0.5,0.8-1.1,1.2-1.7
	c0.5-0.8,1-1.5,1.5-2.5c2.3-4.1,4.4-8.3,6.2-12.7c2-4.7,3.9-9.7,5.7-14.8s3.5-10.4,5.2-15.8s3.4-10.8,5-16.2
	c3.3-11,6.6-22.1,10.1-33.4s7.3-22.6,11.6-34.2c2.2-5.8,4.6-11.6,7.2-17.5c2.8-6.2,5.9-12.2,9.4-18c1-1.5,1.9-3.1,3-4.6
	s2.2-3.1,3.4-4.7c2.6-3.5,5.6-6.7,8.8-9.6c4-3.7,8.5-6.7,13.4-9.1c2.9-1.4,6-2.4,9.1-3.1c1.6-0.4,3.3-0.7,5-0.8
	c1.7-0.1,3.4-0.3,5.1-0.2s3.4,0.2,5.1,0.4s3.3,0.6,5,1s3.1,0.9,4.7,1.5s2.8,1.2,4.2,1.8c4.7,2.4,9.1,5.4,13,9
	c3.2,2.9,6.1,6.1,8.7,9.5l1.8,2.3l1.6,2.3c1.1,1.6,2,3.1,3,4.6c3.5,5.8,6.7,11.7,9.5,17.9c2.7,5.9,5.2,11.6,7.4,17.4
	c8.9,22.9,15.6,45.4,22.5,67.3c3.4,10.9,6.9,21.7,10.6,32c1.8,5.1,3.8,10.1,5.8,14.8c0.5,1.2,1,2.4,1.5,3.5l0.8,1.7l0.8,1.6
	c0.5,1.1,1.1,2.1,1.6,3.1l0.8,1.5c0.3,0.5,0.5,1,0.8,1.4c0.9,1.5,1.9,3,3,4.4l0.3-0.2c0.3-0.3,0.6-0.5,1-0.8s0.7-0.6,1-0.9l1-1
	c0.4-0.3,0.7-0.8,1.1-1.1c3.2-3.5,6.1-7.4,8.6-11.4l1-1.6l1-1.7l2-3.3c1.3-2.3,2.6-4.6,3.9-7c2.5-4.8,4.9-9.6,7.3-14.7
	c4.7-10,9-20.4,13.2-30.9c1.1-2.6,2.1-5.3,3.1-7.9l3-8l5.9-16.1l2.9-8.1l2.8-8.1c1.9-5.4,3.6-10.9,5.5-16.4s3.6-10.9,5.5-16.4
	s3.5-11,5.3-16.5c3.6-11,7-22.1,10.5-33.1c3.3-10.7,6.7-21.3,10-32C381.3-0.4,229.4-34.6,114.5,38c-30.8,19.5-57,45.6-76.5,76.4
	C41.5,125.1,44.8,135.8,48.2,146.5z"/>
<path class="st0" d="M137.3,352.8c-0.1,0-0.1-0.1-0.2-0.1c-0.1,0-0.1,0-0.2,0h-0.1h-0.2l0,0l0.3,0.1l0.1,0.1h0.1
	c0.1,0,0.2,0,0.3,0.1c0,0,0.1,0,0.1-0.1c0,0-0.1-0.1-0.1-0.1L137.3,352.8z"/>
<path class="st0" d="M460.5,125.6c-0.9,8-1.9,16-3,23.9c-1.5,11.6-3.3,23.1-5.1,34.6s-3.9,23-6,34.5c-4.5,23-9.4,46-15.8,68.8
	c-3.1,11.5-6.7,22.9-10.8,34.3c-2.1,5.7-4.3,11.4-6.7,17.1c-1.2,2.9-2.5,5.7-3.8,8.6l-2.1,4.3l-1.1,2.1l-1.2,2.2
	c-3.2,6.1-6.9,11.9-11.1,17.4c-0.6,0.7-1.1,1.5-1.7,2.2l-1.9,2.2c-0.7,0.7-1.2,1.5-2,2.2l-2.3,2.2l-1.1,1.1
	c-0.4,0.4-0.9,0.7-1.3,1.1l-2.7,2.1c-0.9,0.7-2,1.4-3,2l-1.6,1c-0.5,0.3-1.2,0.6-1.8,0.9c-5.2,2.8-11.1,4.4-17,4.7h-1.2
	c-0.4,0-0.8,0-1.3,0c-1,0-1.9-0.1-2.8-0.2c-1.8-0.2-3.7-0.5-5.5-1c-0.9-0.2-1.7-0.5-2.5-0.8c-0.8-0.3-1.6-0.6-2.4-0.9l-0.6-0.2
	l-0.5-0.2l-1.1-0.5c-0.7-0.4-1.4-0.7-2.1-1.1c-4.4-2.6-8.4-5.8-11.9-9.6c-2.7-2.9-5.2-6.1-7.4-9.4c-0.5-0.8-1-1.5-1.5-2.3l-1.4-2.3
	c-0.9-1.5-1.8-3-2.6-4.5l-1.2-2l-1.2-2.2c-0.8-1.5-1.5-2.9-2.2-4.4c-2.9-5.8-5.4-11.5-7.7-17.2c-4.7-11.3-8.8-22.5-12.7-33.5
	L276,270c-3.8-10.7-7.6-21.2-11.8-31.3c-2.1-5-4.2-9.9-6.4-14.5c-2.1-4.4-4.4-8.6-6.9-12.7c-0.6-0.9-1.2-1.9-1.8-2.7l-0.9-1.2
	l-0.9-1.1c-0.6-0.8-1.2-1.5-1.8-2.1c-0.5,0.5-1,1.1-1.5,1.8s-1.1,1.5-1.7,2.3s-1.2,1.7-1.7,2.6c-2.5,4.1-4.8,8.3-6.8,12.7
	c-2.2,4.6-4.2,9.5-6.3,14.5c-4.1,10-7.8,20.6-11.5,31.4l-11.2,32.8c-3.8,11.1-7.8,22.3-12.4,33.7c-2.3,5.7-4.8,11.4-7.6,17.3
	c-2.9,6.2-6.3,12.2-10.1,18c-1,1.5-2.2,3.1-3.4,4.7s-2.6,3.2-4.1,4.8c-3.5,3.9-7.7,7.1-12.2,9.7c-1.4,0.8-2.9,1.5-4.4,2.1
	c-0.8,0.3-1.6,0.6-2.4,0.9c-0.8,0.3-1.7,0.5-2.6,0.7s-1.8,0.4-2.7,0.5s-1.9,0.2-2.8,0.3l-1.4,0.1h-0.7h-0.6c-0.8,0-1.6,0-2.4-0.1
	c-5.8-0.4-11.5-2.1-16.7-4.9l-0.9-0.5l-0.8-0.5l-1.6-1c-1-0.6-2-1.3-3-2c-1.7-1.3-3.4-2.7-5-4.2l-2.3-2.2c-0.7-0.7-1.3-1.5-2-2.2
	l-1.9-2.2l-1.7-2.2l-1.7-2.2c-0.6-0.7-1-1.4-1.5-2.2c-1-1.4-2-2.9-2.9-4.3l-2.7-4.3l-2.3-4.3c-0.8-1.4-1.5-2.9-2.2-4.3l-2.2-4.3
	c-1.3-2.9-2.7-5.7-3.8-8.6c-2.4-5.7-4.7-11.4-6.7-17.1c-4.1-11.4-7.7-22.8-10.8-34.3c-6.5-22.9-11.5-45.8-16-68.8s-8.2-46-11.3-69.1
	c-1.1-8.1-2.2-16.1-3.1-24.2C10.8,162.2-0.1,203.7,0,246c0,135.9,110.1,246,246,246s246-110.1,246-246
	C492.1,203.8,481.2,162.3,460.5,125.6z"/>
</svg>
